<?xml version="1.0" encoding="UTF-8"?>
<svg xmlns="http://www.w3.org/2000/svg" xmlns:xlink="http://www.w3.org/1999/xlink" width="240pt" height="240pt" viewBox="0 0 240 240" version="1.1">
<g id="surface18270316">
<path style=" stroke:none;fill-rule:nonzero;fill:rgb(92.941177%,90.588236%,96.470588%);fill-opacity:1;" d="M 120 20 C 64.773438 20 20 64.773438 20 120 C 20 175.226562 64.773438 220 120 220 C 175.226562 220 220 175.226562 220 120 C 220 64.773438 175.226562 20 120 20 Z M 120 20 "/>
<path style=" stroke:none;fill-rule:nonzero;fill:rgb(100%,59.607846%,0%);fill-opacity:1;" d="M 140 155 C 140 155 140 175 120 175 C 100 175 100 155 100 155 "/>
<path style=" stroke:none;fill-rule:nonzero;fill:rgb(40.392157%,22.745098%,71.764708%);fill-opacity:1;" d="M 120 220 C 142.410156 220 163.023438 212.539062 179.695312 200.089844 C 176.601562 162.261719 138.75 155 138.75 155 L 120 158.851562 L 101.25 155 C 101.25 155 63.390625 162.121094 60.300781 200.089844 C 76.976562 212.539062 97.589844 220 120 220 Z M 120 220 "/>
<path style=" stroke:none;fill-rule:nonzero;fill:rgb(19.215687%,10.588235%,57.254905%);fill-opacity:1;" d="M 120 185 C 135.296875 185 147.890625 173.539062 149.738281 158.75 C 145.320312 156.761719 141.726562 155.714844 139.96875 155.285156 C 139.816406 166.191406 130.949219 175 120 175 C 109.050781 175 100.179688 166.191406 100.03125 155.273438 C 98.265625 155.703125 94.675781 156.738281 90.253906 158.714844 C 92.085938 173.523438 104.691406 185 120 185 Z M 120 185 "/>
<path style=" stroke:none;fill-rule:nonzero;fill:rgb(100%,67.058825%,25.098041%);fill-opacity:1;" d="M 160 112.5 C 160 116.640625 156.640625 120 152.5 120 C 148.355469 120 145 116.640625 145 112.5 C 145 108.359375 148.355469 105 152.5 105 C 156.640625 105 160 108.359375 160 112.5 M 95 112.5 C 95 108.359375 91.640625 105 87.5 105 C 83.359375 105 80 108.359375 80 112.5 C 80 116.640625 83.359375 120 87.5 120 C 91.640625 120 95 116.640625 95 112.5 M 140 155 L 140 135 L 100 135 L 100 155 C 100 155 100 175 120 175 C 140 175 140 155 140 155 Z M 140 155 "/>
<path style=" stroke:none;fill-rule:nonzero;fill:rgb(100%,80.000001%,50.196081%);fill-opacity:1;" d="M 155 93.398438 C 155 64.003906 85 74.265625 85 93.398438 L 85 115.355469 C 85 134.476562 100.664062 150.003906 120 150.003906 C 139.328125 150.003906 155 134.480469 155 115.355469 Z M 155 93.398438 "/>
<path style=" stroke:none;fill-rule:nonzero;fill:rgb(0%,0%,0%);fill-opacity:1;" d="M 120 55 C 95.699219 55 80 76.566406 80 95.859375 L 80 105 L 90 115 L 90 95 L 136 80 L 150 95 L 150 115 L 160 105 L 160 100.953125 C 160 84.863281 155.84375 66.941406 136 62.996094 L 131.996094 55 Z M 120 55 "/>
<path style=" stroke:none;fill-rule:nonzero;fill:rgb(47.058824%,27.843139%,9.803922%);fill-opacity:1;" d="M 130 110 C 130 107.246094 132.238281 105 135 105 C 137.761719 105 140 107.246094 140 110 C 140 112.753906 137.761719 115 135 115 C 132.238281 115 130 112.753906 130 110 M 100 110 C 100 112.753906 102.238281 115 105 115 C 107.761719 115 110 112.753906 110 110 C 110 107.246094 107.761719 105 105 105 C 102.238281 105 100 107.246094 100 110 "/>
</g>
</svg>
